P3
5 5
255
147 162 203	 208 223 255	 140 154 199	 132 146 193	 166 180 227
186 218 158 	181 215 151	 177 210 148	 174 209 139 	168 202 128
190 68  133	 191 58  127	 186 57  129	 187 57  132 	189 51  126
69  97  137	 131 159 199	 144 168 214	 105 129 175	 119 141 188
178 211 153	 176 210 149	 173 207 152	 178 211 147 	176 210 142