P3
5 5
255
101 103 100 	95 97 92 	95 100 93 	101 109 96	 95 106 90
6 198 187 	208 200	187 	210 203 187	 211 204 188 	212 205 187
3 111 83 	81 69 55 	53 41 48	 45 38 33 	30 23 35
92 94 91	 101 103 98	 106 111 104 	102 110 97 	94 105 89 
1 211 203 	190 212 204	 191 213 206	 190 214 207	 191 215 208